# Blender v2.79 (sub 0) OBJ File: ''
# www.blender.org
mtllib road.mtl
o old_road
v -24.959217 0.792242 44.889336
v -24.959217 0.792242 44.889336
v -24.959217 0.792242 44.889336
v -24.959217 2.003363 44.889336
v -24.959217 2.003363 44.889336
v -24.959217 2.003363 44.889336
v -24.959217 0.792242 -44.889336
v -24.959217 0.792242 -44.889336
v -24.959217 0.792242 -44.889336
v -24.959217 2.003363 -44.889336
v -24.959217 2.003363 -44.889336
v -24.959217 2.003363 -44.889336
v 25.160061 0.792242 44.889336
v 25.160061 0.792242 44.889336
v 25.160061 0.792242 44.889336
v 25.160061 2.003363 44.889336
v 25.160061 2.003363 44.889336
v 25.160061 2.003363 44.889336
v 25.160061 0.792242 -44.889336
v 25.160061 0.792242 -44.889336
v 25.160061 0.792242 -44.889336
v 25.160061 2.003363 -44.889336
v 25.160061 2.003363 -44.889336
v 25.160061 2.003363 -44.889336
vt 0.998999 0.001001
vt 0.901001 0.001001
vt 0.901001 0.665666
vt 0.998999 0.665666
vt 0.798999 0.498999
vt 0.798999 0.417668
vt 0.401001 0.417668
vt 0.401001 0.498999
vt 0.898999 0.001001
vt 0.801001 0.001001
vt 0.801001 0.665666
vt 0.898999 0.665666
vt 0.401001 0.334334
vt 0.401001 0.415666
vt 0.798999 0.415666
vt 0.798999 0.334334
vt 0.001001 0.998999
vt 0.398999 0.998999
vt 0.398999 0.334334
vt 0.001001 0.334334
vt 0.798999 0.332332
vt 0.798999 0.001001
vt 0.001001 0.001001
vt 0.001001 0.332332
vn -1.0000 0.0000 0.0000
vn 0.0000 0.0000 -1.0000
vn 1.0000 0.0000 0.0000
vn 0.0000 0.0000 1.0000
vn 0.0000 -1.0000 0.0000
vn 0.0000 1.0000 0.0000
usemtl Noneroad.dds
s off
f 1/1/1 4/2/1 10/3/1
f 1/1/1 10/3/1 7/4/1
f 8/5/2 11/6/2 22/7/2
f 8/5/2 22/7/2 19/8/2
f 20/9/3 23/10/3 16/11/3
f 20/9/3 16/11/3 13/12/3
f 5/13/4 2/14/4 14/15/4
f 5/13/4 14/15/4 17/16/4
f 15/17/5 3/18/5 9/19/5
f 15/17/5 9/19/5 21/20/5
f 24/21/6 12/22/6 6/23/6
f 24/21/6 6/23/6 18/24/6
