# Blender v2.79 (sub 0) OBJ File: ''
# www.blender.org
mtllib Rock.mtl
o Cube_Cube.001
v 0.896930 -0.116701 -1.078061
v 0.896930 -0.116701 -1.078061
v 0.896930 -0.116701 -1.078061
v 0.736314 -0.076033 1.066762
v 0.736314 -0.076033 1.066762
v -1.052088 -0.064600 0.954513
v -0.692441 -0.114299 -0.835835
v 1.303753 1.083753 -1.023542
v 1.303753 1.083753 -1.023542
v 0.444005 1.032712 1.513821
v -1.019775 1.174950 1.105961
v -1.019775 1.174950 1.105961
v -0.681862 1.180458 -1.481573
v -0.681862 1.180458 -1.481573
v 1.045407 -0.157597 -0.147996
v 1.045407 -0.157597 -0.147996
v 0.067265 -0.072713 -0.783522
v 0.067265 -0.072713 -0.783522
v 1.200361 0.538245 -1.221685
v 1.200361 0.538245 -1.221685
v -0.154563 -0.114500 1.228987
v 1.155268 0.478039 1.381585
v 1.155268 0.478039 1.381585
v -1.094633 -0.254018 -0.118459
v -1.648060 0.452009 0.853586
v -1.648060 0.452009 0.853586
v -1.185727 0.481559 -1.133555
v 0.975431 1.246559 0.047895
v 0.975431 1.246559 0.047895
v 0.975431 1.246559 0.047895
v 0.105258 1.126820 -1.585067
v 0.105258 1.126820 -1.585067
v -0.344848 1.152380 1.730000
v -0.344848 1.152380 1.730000
v -0.344848 1.152380 1.730000
v -1.177093 1.303243 0.009798
v -1.177093 1.303243 0.009798
v -0.015789 -0.312706 -0.060242
v 0.046107 1.351565 -0.253730
v 1.175182 0.692469 0.169032
v 0.260077 0.452640 1.365451
v 0.260077 0.452640 1.365451
v -1.648881 0.429819 -0.064031
v -0.199824 0.336820 -1.536424
v 1.008866 -0.126459 0.470257
v 1.008866 -0.126459 0.470257
v -0.321458 -0.060305 -0.702046
v -0.321458 -0.060305 -0.702046
v 1.385825 0.807576 -1.181814
v -0.537873 -0.057997 1.154378
v 0.936321 0.677546 1.426494
v -0.862364 -0.219203 -0.537108
v -0.862364 -0.219203 -0.537108
v -1.281588 0.883991 1.218077
v -0.974527 0.926074 -1.431442
v 0.808457 1.346412 0.902078
v 0.808457 1.346412 0.902078
v 0.808457 1.346412 0.902078
v -0.174992 1.147173 -1.801163
v -0.174992 1.147173 -1.801163
v -0.610285 1.147948 1.327881
v -0.610285 1.147948 1.327881
v -1.356023 1.245036 -0.716849
v -1.356023 1.245036 -0.716849
v -1.356023 1.245036 -0.716849
v 1.042022 -0.190494 -0.637866
v 1.042022 -0.190494 -0.637866
v 0.468949 -0.142859 -1.026806
v 0.468949 -0.142859 -1.026806
v 1.081272 0.175115 -1.287556
v 1.081272 0.175115 -1.287556
v 0.243586 -0.141476 1.191072
v 1.014587 0.183491 1.312948
v 1.014587 0.183491 1.312948
v 1.014587 0.183491 1.312948
v -1.155731 -0.217847 0.459469
v -1.571341 0.110279 0.770709
v -1.571341 0.110279 0.770709
v -1.063276 0.074521 -1.015607
v 1.231954 1.216866 -0.594471
v 1.231954 1.216866 -0.594471
v 1.231954 1.216866 -0.594471
v 0.770454 1.122192 -1.299703
v 0.770454 1.122192 -1.299703
v -0.065279 1.102928 1.796044
v -0.065279 1.102928 1.796044
v -1.176430 1.281231 0.646380
v -1.176430 1.281231 0.646380
v -0.476225 -0.274043 -0.037390
v 0.480423 -0.312115 -0.111060
v 0.172793 -0.188473 -0.532460
v 0.172793 -0.188473 -0.532460
v -0.106274 -0.274351 0.595963
v -0.198010 1.360380 0.630818
v 0.062998 1.276304 -0.994314
v 0.611501 1.352344 -0.290780
v -0.603343 1.343584 -0.011276
v 1.267461 0.630730 1.008356
v 1.267461 0.630730 1.008356
v 1.267107 0.600208 -0.689727
v 1.268899 0.241091 -0.063884
v 1.050912 1.068503 0.197512
v 1.050912 1.068503 0.197512
v -1.043570 0.402928 1.289593
v -1.043570 0.402928 1.289593
v -1.043570 0.402928 1.289593
v -1.043570 0.402928 1.289593
v 0.667029 0.439932 1.448684
v -0.135120 0.156677 1.505020
v -0.135120 0.156677 1.505020
v -0.066870 0.652060 1.602193
v -0.066870 0.652060 1.602193
v -0.066870 0.652060 1.602193
v -1.759897 0.319614 -0.724614
v -1.759897 0.319614 -0.724614
v -1.646483 0.462612 0.459024
v -1.548443 -0.153801 -0.255587
v -1.548443 -0.153801 -0.255587
v -1.483055 1.068517 0.045330
v -0.775458 0.497559 -1.402503
v 0.556317 0.449266 -1.496503
v 0.556317 0.449266 -1.496503
v 0.153226 0.839249 -1.832230
v 0.153226 0.839249 -1.832230
v -0.180515 0.060946 -1.233899
v -0.180515 0.060946 -1.233899
v -0.630920 -0.226328 0.592326
v -0.677921 1.329703 0.698183
v 1.115930 1.067893 0.980967
v 1.115930 1.067893 0.980967
v -0.944509 0.743625 1.392342
v -0.944509 0.743625 1.392342
v -1.719440 0.916506 -0.699776
v -1.719440 0.916506 -0.699776
v -0.751048 0.149059 -1.123006
v -0.751048 0.149059 -1.123006
v -0.359688 -0.219676 -0.596748
v -0.359688 -0.219676 -0.596748
v 0.548058 -0.284113 -0.657622
v 0.548058 -0.284113 -0.657622
v 0.383454 -0.298149 0.533170
v 0.342781 1.370886 0.863692
v 0.342781 1.370886 0.863692
v 0.801564 1.333314 -0.716665
v -0.544178 1.290048 -0.889409
v 1.347667 0.189763 0.746821
v 1.323792 0.127379 -0.856060
v 1.423543 0.897206 -0.707035
v 1.423543 0.897206 -0.707035
v -0.706694 0.190636 1.346937
v -0.706694 0.190636 1.346937
v 0.494274 0.153436 1.399456
v 0.494274 0.153436 1.399456
v 0.524189 0.691410 1.410453
v -1.346437 -0.078697 -0.808084
v -1.346437 -0.078697 -0.808084
v -1.346437 -0.078697 -0.808084
v -1.550380 0.033513 0.487642
v -1.550380 0.033513 0.487642
v -1.434319 1.017100 0.746778
v -0.263198 0.916780 -1.716774
v 0.802037 0.850318 -1.528586
v 0.802037 0.850318 -1.528586
v 0.802037 0.850318 -1.528586
v 0.512712 0.114694 -1.198383
vt 0.137636 0.563411
vt 0.058285 0.569867
vt 0.082613 0.506661
vt 0.152906 0.498683
vt 0.155028 0.344089
vt 0.206316 0.378186
vt 0.155630 0.402329
vt 0.099783 0.387655
vt 0.896175 0.282885
vt 0.854473 0.349296
vt 0.794976 0.248970
vt 0.870663 0.174892
vt 0.949240 0.587705
vt 0.944083 0.694636
vt 0.905653 0.682602
vt 0.916733 0.604517
vt 0.336809 0.082005
vt 0.369246 0.000842
vt 0.489191 0.000000
vt 0.460672 0.063535
vt 0.485748 0.254952
vt 0.512673 0.310590
vt 0.481603 0.323059
vt 0.447322 0.276247
vt 0.276846 0.583529
vt 0.215363 0.578539
vt 0.223692 0.502410
vt 0.270084 0.523882
vt 0.288525 0.695621
vt 0.226456 0.694739
vt 0.220811 0.635843
vt 0.266533 0.646047
vt 0.149628 0.688747
vt 0.060049 0.668982
vt 0.053708 0.620010
vt 0.140662 0.629249
vt 0.046020 0.277128
vt 0.115533 0.299946
vt 0.042023 0.402498
vt 0.011393 0.383384
vt 0.133867 0.094672
vt 0.226136 0.127633
vt 0.165692 0.199396
vt 0.116225 0.149680
vt 0.273683 0.187557
vt 0.335575 0.267841
vt 0.258354 0.321530
vt 0.206193 0.274302
vt 0.422948 0.654063
vt 0.520455 0.684734
vt 0.477461 0.726331
vt 0.404599 0.713241
vt 0.422729 0.459207
vt 0.529375 0.479105
vt 0.539575 0.580737
vt 0.439840 0.553878
vt 0.744126 0.814485
vt 0.672331 0.787452
vt 0.683844 0.711964
vt 0.731678 0.707183
vt 0.016271 0.536299
vt 0.006598 0.482318
vt 0.054401 0.402498
vt 0.090851 0.431859
vt 0.857058 0.070133
vt 0.855242 0.125920
vt 0.818683 0.137473
vt 0.786060 0.070157
vt 0.829103 0.182611
vt 0.720806 0.251159
vt 0.693981 0.268226
vt 0.758736 0.168010
vt 0.408067 0.318081
vt 0.348488 0.225548
vt 0.431026 0.176751
vt 0.834672 0.401576
vt 0.821728 0.494375
vt 0.758928 0.488146
vt 0.747834 0.361119
vt 0.853441 0.628842
vt 0.844101 0.700647
vt 0.766741 0.707183
vt 0.766456 0.640000
vt 0.554998 0.057463
vt 0.491069 0.166304
vt 0.661203 0.071636
vt 0.642437 0.169965
vt 0.565426 0.199969
vt 0.608937 0.072162
vt 0.628288 0.255903
vt 0.619708 0.321108
vt 0.560004 0.310321
vt 0.556413 0.271543
vt 0.934356 0.187628
vt 0.907061 0.133559
vt 0.622627 0.581780
vt 0.617335 0.678426
vt 0.662917 0.562066
vt 0.672331 0.661064
vt 0.939564 0.506329
vt 0.869574 0.490922
vt 0.791582 0.866218
vt 0.744126 0.821215
vt 0.752056 0.707183
vt 0.791426 0.711743
vt 1.000000 0.606532
vt 0.999879 0.706758
vt 0.672331 0.596657
vt 0.677773 0.459778
vt 0.674914 0.687648
vt 0.387737 0.801509
vt 0.336809 0.833560
vt 0.336920 0.785916
vt 0.384519 0.726331
vt 0.506205 0.350977
vt 0.448079 0.354288
vt 0.559475 0.342029
vt 0.609960 0.361119
vt 0.324683 0.722893
vt 0.278588 0.749240
vt 0.320949 0.673747
vt 0.218381 0.752553
vt 0.143231 0.752483
vt 0.069266 0.722735
vt 0.808347 0.361119
vt 0.056221 0.145884
vt 0.000000 0.241327
vt 0.085645 0.065345
vt 0.116277 0.014773
vt 0.187902 0.035191
vt 0.273048 0.064123
vt 0.316518 0.068429
vt 0.336809 0.140426
vt 0.340137 0.610197
vt 0.336809 0.674909
vt 0.339988 0.536299
vt 0.336833 0.476818
vt 0.353162 0.419686
vt 0.429528 0.400325
vt 0.517650 0.412671
vt 0.604166 0.482239
vt 0.586459 0.423461
vt 0.646477 0.441109
vt 0.670954 0.491413
vt 0.000000 0.608449
vt 0.694133 0.143704
vt 0.736508 0.092307
vt 0.012308 0.682984
vt 0.019832 0.742597
vt 0.913859 0.076969
vt 0.232244 0.440506
vt 0.291247 0.454530
vt 0.685316 0.388716
vt 0.130148 0.436240
vt 0.867108 0.417288
vt 0.563922 0.000091
vt 0.582099 0.007382
vt 0.207942 0.000000
vt 0.293309 0.025246
vt 0.579472 0.365264
vt 0.639569 0.392860
vt 0.477201 0.361119
vt 0.693981 0.150197
vt 0.693822 0.237100
vt 0.668575 0.311882
vn -0.1049 -0.9478 0.3012
vn -0.0944 -0.9453 0.3124
vn -0.1204 0.9574 0.2624
vn -0.0917 0.9541 0.2852
vn 0.4443 0.6616 0.6040
vn 0.5068 0.5367 0.6746
vn -0.4002 0.4574 0.7941
vn -0.2154 0.5138 0.8304
vn -0.5720 0.6038 -0.5552
vn -0.5854 0.5575 -0.5887
vn 0.3383 -0.6581 -0.6726
vn -0.0531 -0.7413 -0.6690
vn -0.0190 -0.9947 -0.1006
vn -0.0115 -0.9959 -0.0892
vn -0.0041 -0.9987 -0.0517
vn -0.3423 -0.8660 -0.3645
vn -0.0448 -0.9739 0.2224
vn -0.0159 -0.9697 0.2437
vn -0.0936 0.9805 0.1730
vn 0.0934 0.9453 0.3125
vn -0.0384 0.9941 -0.1019
vn -0.0044 0.9989 -0.0466
vn -0.0686 0.9957 -0.0629
vn -0.0724 0.9952 -0.0656
vn 0.9574 0.0028 0.2889
vn 0.7638 -0.4683 0.4442
vn 0.9917 0.0847 0.0970
vn 0.9823 0.1823 0.0419
vn 0.8574 0.3998 0.3239
vn 0.8102 0.5383 0.2318
vn -0.4930 -0.6164 0.6141
vn -0.5074 -0.3090 0.8044
vn -0.2016 -0.0466 0.9784
vn 0.1619 0.2357 0.9582
vn -0.2625 -0.8327 0.4875
vn 0.3120 -0.0687 0.9476
vn -0.4833 -0.3320 -0.8101
vn -0.4131 -0.3659 -0.8339
vn -0.9759 -0.2174 0.0181
vn -0.9821 -0.1833 0.0436
vn -0.7105 0.7032 0.0251
vn -0.5983 0.7950 0.0998
vn -0.5489 0.0450 -0.8347
vn -0.3451 -0.4038 -0.8473
vn 0.0705 -0.1224 -0.9900
vn 0.3341 -0.6414 -0.6906
vn -0.5240 -0.4088 -0.7472
vn 0.0897 -0.9403 -0.3284
vn -0.0332 -0.9972 0.0674
vn -0.0399 -0.9975 0.0582
vn -0.0914 -0.9948 0.0455
vn -0.0808 -0.9952 0.0556
vn -0.1852 -0.9561 0.2273
vn -0.0890 -0.9500 0.2993
vn -0.0221 0.9599 0.2794
vn -0.2419 0.9588 0.1491
vn -0.0052 0.9998 0.0190
vn -0.0678 0.9973 -0.0286
vn -0.0688 0.9970 0.0345
vn -0.0977 0.9952 0.0092
vn 0.7638 0.3005 0.5712
vn 0.6509 0.6138 0.4468
vn 0.9448 0.3182 -0.0782
vn 0.9434 0.3220 -0.0800
vn 0.8755 0.4689 0.1163
vn 0.6781 0.7328 -0.0557
vn -0.4939 -0.1163 0.8617
vn -0.5854 -0.1719 0.7923
vn -0.1994 -0.8676 0.4555
vn -0.0453 -0.2763 0.9600
vn -0.7118 -0.5169 0.4755
vn -0.1910 0.3065 0.9325
vn -0.6992 0.0770 -0.7108
vn -0.4914 -0.3116 -0.8133
vn -0.9448 0.2010 0.2587
vn -0.9860 0.0604 0.1556
vn -0.6004 0.7953 0.0841
vn -0.6678 0.7419 0.0605
vn -0.1156 -0.6264 -0.7709
vn -0.4977 -0.3762 -0.7815
vn -0.2376 -0.7252 -0.6462
vn -0.3367 -0.6034 -0.7229
vn -0.0816 -0.9668 -0.2420
vn -0.1976 -0.9431 -0.2674
vn -0.1003 -0.5316 -0.8410
vn 0.2153 -0.9532 -0.2123
vn 0.1066 -0.8852 -0.4529
vn -0.1922 -0.5085 -0.8394
vn -0.0943 -0.9529 -0.2884
vn 0.0682 -0.9943 -0.0824
vn -0.3230 -0.9049 -0.2770
vn -0.3267 -0.9030 -0.2790
vn 0.1901 -0.9561 -0.2229
vn 0.0139 -0.9329 -0.3599
vn 0.2671 -0.9616 0.0627
vn 0.1872 -0.9819 -0.0271
vn -0.0467 -0.9988 0.0146
vn 0.0073 -0.9982 0.0593
vn 0.2702 -0.9607 0.0644
vn 0.2670 -0.9618 0.0610
vn 0.1694 -0.9725 0.1596
vn 0.2802 -0.9187 0.2783
vn 0.0267 0.9576 0.2869
vn 0.4262 0.6764 0.6007
vn 0.2434 0.9690 0.0411
vn 0.0608 0.9927 -0.1042
vn -0.0021 0.9999 -0.0105
vn -0.0114 0.9998 -0.0187
vn 0.2433 0.9678 0.0653
vn 0.2361 0.9705 0.0494
vn 0.2424 0.9080 -0.3417
vn 0.3150 0.9201 -0.2327
vn 0.1082 0.9656 -0.2366
vn 0.0564 0.9378 -0.3426
vn 0.0122 0.9981 -0.0600
vn -0.0503 0.9935 -0.1021
vn 0.1452 0.9848 -0.0955
vn -0.0207 0.9689 -0.2466
vn 0.0279 0.9978 -0.0597
vn -0.0949 0.9769 -0.1915
vn 0.5134 -0.8065 0.2932
vn 0.4979 -0.8150 0.2964
vn 0.8767 -0.4672 -0.1148
vn 0.6463 -0.7593 0.0764
vn 0.9653 0.2459 -0.0880
vn 0.9712 0.2242 -0.0802
vn 0.7869 -0.6009 0.1408
vn 0.8695 -0.4931 0.0271
vn 0.6046 -0.6799 -0.4150
vn 0.5900 -0.7418 -0.3188
vn 0.9512 -0.2966 -0.0848
vn 0.8536 0.2609 -0.4509
vn 0.8156 -0.4055 0.4128
vn 0.9488 0.3084 0.0684
vn 0.8199 -0.5709 0.0426
vn 0.8820 -0.4679 -0.0562
vn 0.9675 0.2368 0.0884
vn 0.8181 0.5498 -0.1688
vn -0.3438 -0.7097 0.6149
vn -0.3597 -0.0922 0.9285
vn -0.2316 -0.6858 0.6900
vn -0.2350 -0.6899 0.6847
vn -0.0693 0.4997 0.8634
vn -0.2721 -0.1763 0.9460
vn 0.1238 -0.6407 0.7578
vn 0.0183 -0.7139 0.7000
vn 0.1491 -0.7600 0.6326
vn 0.2613 -0.6952 0.6696
vn 0.1526 -0.2928 0.9439
vn 0.1730 -0.2672 0.9480
vn 0.2768 0.2962 0.9141
vn -0.1335 -0.8411 0.5242
vn -0.0465 -0.2676 0.9624
vn 0.1166 0.2137 0.9699
vn 0.4754 0.4772 0.7391
vn -0.0512 -0.7209 0.6912
vn 0.0586 -0.8396 -0.5400
vn -0.2310 -0.8694 -0.4367
vn -0.1569 -0.9693 -0.1891
vn -0.1798 -0.9671 -0.1802
vn -0.9530 -0.2291 0.1984
vn -0.6874 -0.6425 -0.3387
vn -0.5148 -0.8316 0.2083
vn -0.2261 -0.9734 0.0370
vn -0.3794 -0.8997 0.2159
vn -0.4854 -0.8013 0.3497
vn -0.9762 -0.2168 -0.0097
vn -0.9756 -0.2193 -0.0128
vn -0.9448 0.3154 0.0888
vn -0.9674 0.2531 -0.0114
vn -0.8384 0.3892 0.3816
vn -0.9349 0.3547 0.0058
vn -0.6149 0.6961 0.3706
vn -0.5804 0.7149 0.3900
vn -0.3675 -0.1926 -0.9099
vn -0.4731 0.3884 -0.7908
vn -0.0923 0.6401 -0.7627
vn 0.5202 -0.4622 -0.7182
vn -0.2985 -0.3197 -0.8993
vn -0.3065 -0.3021 -0.9026
vn 0.3197 0.6317 -0.7062
vn 0.3035 0.6497 -0.6970
vn 0.4586 0.5405 -0.7054
vn 0.3962 0.6178 -0.6792
vn 0.4052 -0.1454 -0.9026
vn 0.4600 -0.3472 -0.8172
vn 0.0897 -0.6691 -0.7378
vn 0.1435 -0.7267 -0.6718
vn -0.1747 0.2309 -0.9572
vn 0.3739 -0.6437 -0.6677
vn -0.0655 -0.5543 -0.8297
vn -0.0732 -0.5443 -0.8357
usemtl Material
s off
f 127/1/1 50/2/1 6/3/1
f 127/1/2 6/3/2 76/4/2
f 128/5/3 87/6/3 11/7/3
f 128/5/4 11/7/4 61/8/4
f 129/9/5 56/10/5 10/11/5
f 129/9/6 10/11/6 51/12/6
f 131/13/7 62/14/7 12/15/7
f 131/13/8 12/15/8 54/16/8
f 133/17/9 63/18/9 13/19/9
f 133/17/10 13/19/10 55/20/10
f 135/21/11 47/22/11 7/23/11
f 135/21/12 7/23/12 79/24/12
f 137/25/13 89/26/13 24/27/13
f 137/25/14 24/27/14 52/28/14
f 139/29/15 90/30/15 38/31/15
f 139/29/16 38/31/16 91/32/16
f 141/33/17 72/34/17 21/35/17
f 141/33/18 21/35/18 93/36/18
f 142/37/19 94/38/19 33/39/19
f 142/37/20 33/39/20 85/40/20
f 144/41/21 95/42/21 39/43/21
f 144/41/22 39/43/22 96/44/22
f 145/45/23 64/46/23 36/47/23
f 145/45/24 36/47/24 97/48/24
f 146/49/25 98/50/25 22/51/25
f 146/49/26 22/51/26 73/52/26
f 147/53/27 100/54/27 40/55/27
f 147/53/28 40/55/28 101/56/28
f 148/57/29 80/58/29 28/59/29
f 148/57/30 28/59/30 102/60/30
f 150/61/31 104/62/31 25/63/31
f 150/61/32 25/63/32 77/64/32
f 152/65/33 108/66/33 41/67/33
f 152/65/34 41/67/34 109/68/34
f 154/69/35 86/70/35 34/71/35
f 154/69/36 34/71/36 111/72/36
f 155/73/37 114/74/37 27/75/37
f 155/73/38 27/75/38 79/24/38
f 158/76/39 116/77/39 43/78/39
f 158/76/40 43/78/40 117/79/40
f 160/80/41 88/81/41 37/82/41
f 160/80/42 37/82/42 119/83/42
f 161/84/43 120/85/43 27/75/43
f 161/84/44 27/75/44 55/20/44
f 162/86/45 121/87/45 44/88/45
f 162/86/46 44/88/46 123/89/46
f 165/90/47 68/91/47 17/92/47
f 165/90/48 17/92/48 125/93/48
f 89/26/49 127/1/49 76/4/49
f 89/26/50 76/4/50 24/27/50
f 38/31/51 93/36/51 127/1/51
f 38/31/52 127/1/52 89/26/52
f 93/36/53 21/35/53 50/2/53
f 93/36/54 50/2/54 127/1/54
f 94/38/55 128/5/55 61/8/55
f 94/38/56 61/8/56 33/39/56
f 39/43/57 97/48/57 128/5/57
f 39/43/58 128/5/58 94/38/58
f 97/48/59 36/47/59 87/6/59
f 97/48/60 87/6/60 128/5/60
f 99/94/61 129/9/61 51/12/61
f 99/94/62 51/12/62 23/95/62
f 40/55/63 103/96/63 130/97/63
f 40/55/64 130/97/64 98/50/64
f 103/96/65 29/98/65 57/99/65
f 103/96/66 57/99/66 130/97/66
f 105/100/67 131/13/67 54/16/67
f 105/100/68 54/16/68 26/101/68
f 42/102/69 112/103/69 132/104/69
f 42/102/70 132/104/70 106/105/70
f 113/106/71 35/107/71 62/14/71
f 113/106/72 62/14/72 131/13/72
f 114/74/73 133/17/73 55/20/73
f 114/74/74 55/20/74 27/75/74
f 43/78/75 119/83/75 134/108/75
f 43/78/76 134/108/76 115/109/76
f 119/83/77 37/82/77 65/110/77
f 119/83/78 65/110/78 134/108/78
f 120/85/79 135/21/79 79/24/79
f 120/85/80 79/24/80 27/75/80
f 44/88/81 125/93/81 135/21/81
f 44/88/82 135/21/82 120/85/82
f 126/111/83 18/112/83 48/113/83
f 126/111/84 48/113/84 136/114/84
f 47/22/85 138/115/85 53/116/85
f 47/22/86 53/116/86 7/23/86
f 17/92/87 92/117/87 138/115/87
f 17/92/88 138/115/88 47/22/88
f 91/32/89 38/31/89 89/26/89
f 91/32/90 89/26/90 137/25/90
f 68/91/91 140/118/91 92/117/91
f 68/91/92 92/117/92 17/92/92
f 1/119/93 66/120/93 139/29/93
f 1/119/94 139/29/94 69/121/94
f 66/120/95 15/122/95 90/30/95
f 66/120/96 90/30/96 139/29/96
f 90/30/97 141/33/97 93/36/97
f 90/30/98 93/36/98 38/31/98
f 15/122/99 45/123/99 141/33/99
f 15/122/100 141/33/100 90/30/100
f 45/123/101 4/124/101 72/34/101
f 45/123/102 72/34/102 141/33/102
f 56/10/103 143/125/103 86/70/103
f 56/10/104 86/70/104 10/11/104
f 30/126/105 96/44/105 142/37/105
f 30/126/106 142/37/106 58/127/106
f 96/44/107 39/43/107 94/38/107
f 96/44/108 94/38/108 142/37/108
f 81/128/109 144/41/109 96/44/109
f 81/128/110 96/44/110 30/126/110
f 8/129/111 83/130/111 144/41/111
f 8/129/112 144/41/112 81/128/112
f 83/130/113 31/131/113 95/42/113
f 83/130/114 95/42/114 144/41/114
f 95/42/115 145/45/115 97/48/115
f 95/42/116 97/48/116 39/43/116
f 31/131/117 59/132/117 145/45/117
f 31/131/118 145/45/118 95/42/118
f 59/132/119 14/133/119 64/46/119
f 59/132/120 64/46/120 145/45/120
f 46/134/121 146/49/121 73/52/121
f 46/134/122 73/52/122 5/135/122
f 16/136/123 101/56/123 146/49/123
f 16/136/124 146/49/124 46/134/124
f 101/56/125 40/55/125 98/50/125
f 101/56/126 98/50/126 146/49/126
f 67/137/127 147/53/127 101/56/127
f 67/137/128 101/56/128 16/136/128
f 2/138/129 70/139/129 147/53/129
f 2/138/130 147/53/130 67/137/130
f 70/139/131 19/140/131 100/54/131
f 70/139/132 100/54/132 147/53/132
f 100/54/133 149/141/133 103/96/133
f 100/54/134 103/96/134 40/55/134
f 19/140/135 49/142/135 149/141/135
f 19/140/136 149/141/136 100/54/136
f 49/142/137 9/143/137 82/144/137
f 49/142/138 82/144/138 149/141/138
f 50/2/139 150/61/139 77/64/139
f 50/2/140 77/64/140 6/3/140
f 21/35/141 110/145/141 150/61/141
f 21/35/142 150/61/142 50/2/142
f 109/68/143 41/67/143 107/146/143
f 109/68/144 107/146/144 151/147/144
f 72/34/145 153/148/145 110/145/145
f 72/34/146 110/145/146 21/35/146
f 4/124/147 74/149/147 153/148/147
f 4/124/148 153/148/148 72/34/148
f 75/150/149 23/95/149 108/66/149
f 75/150/150 108/66/150 152/65/150
f 108/66/151 154/69/151 111/72/151
f 108/66/152 111/72/152 41/67/152
f 23/95/153 51/12/153 154/69/153
f 23/95/154 154/69/154 108/66/154
f 51/12/155 10/11/155 86/70/155
f 51/12/156 86/70/156 154/69/156
f 53/116/157 155/73/157 79/24/157
f 53/116/158 79/24/158 7/23/158
f 24/27/159 118/151/159 156/152/159
f 24/27/160 156/152/160 52/28/160
f 117/79/161 43/78/161 115/109/161
f 117/79/162 115/109/162 157/153/162
f 76/4/163 159/154/163 118/151/163
f 76/4/164 118/151/164 24/27/164
f 6/3/165 77/64/165 159/154/165
f 6/3/166 159/154/166 76/4/166
f 78/155/167 26/101/167 116/77/167
f 78/155/168 116/77/168 158/76/168
f 116/77/169 160/80/169 119/83/169
f 116/77/170 119/83/170 43/78/170
f 26/101/171 54/16/171 160/80/171
f 26/101/172 160/80/172 116/77/172
f 54/16/173 12/15/173 88/81/173
f 54/16/174 88/81/174 160/80/174
f 60/156/175 161/84/175 55/20/175
f 60/156/176 55/20/176 13/19/176
f 32/157/177 123/89/177 161/84/177
f 32/157/178 161/84/178 60/156/178
f 123/89/179 44/88/179 120/85/179
f 123/89/180 120/85/180 161/84/180
f 83/130/181 163/158/181 124/159/181
f 83/130/182 124/159/182 31/131/182
f 9/143/183 49/142/183 164/160/183
f 9/143/184 164/160/184 84/161/184
f 49/142/185 19/140/185 122/162/185
f 49/142/186 122/162/186 164/160/186
f 121/87/187 165/90/187 125/93/187
f 121/87/188 125/93/188 44/88/188
f 20/163/189 71/164/189 165/90/189
f 20/163/190 165/90/190 121/87/190
f 71/164/191 3/165/191 68/91/191
f 71/164/192 68/91/192 165/90/192
